<svg xmlns="http://www.w3.org/2000/svg" viewBox="0 0 512 512">
  <!-- Background circle -->
  <circle cx="256" cy="256" r="256" fill="#2563eb"/>

  <!-- Heart shape (care/health) -->
  <path d="M256 420c-8-8-160-120-160-220 0-60 50-100 100-100 30 0 50 15 60 35 10-20 30-35 60-35 50 0 100 40 100 100 0 100-152 212-160 220z" fill="#ffffff"/>

  <!-- Person silhouette inside heart -->
  <circle cx="256" cy="220" r="35" fill="#2563eb"/>
  <path d="M256 270c-40 0-70 25-70 55v25h140v-25c0-30-30-55-70-55z" fill="#2563eb"/>
</svg>
